<?xml version="1.0" standalone="no"?>
<!DOCTYPE svg PUBLIC "-//W3C//DTD SVG 20010904//EN"
 "http://www.w3.org/TR/2001/REC-SVG-20010904/DTD/svg10.dtd">
<svg version="1.0" xmlns="http://www.w3.org/2000/svg"
 width="700.000000pt" height="700.000000pt" viewBox="0 0 700.000000 700.000000"
 preserveAspectRatio="xMidYMid meet">
<metadata>
Created by potrace 1.11, written by Peter Selinger 2001-2013
</metadata>
<g transform="translate(0.000000,700.000000) scale(0.100000,-0.100000)"
fill="#000000" stroke="none">
<path d="M4029 6940 c-31 -30 -222 -217 -424 -415 -201 -198 -432 -424 -513
-502 l-146 -143 -1 -982 0 -983 -1465 -1 c-806 -1 -1467 -2 -1470 -3 -3 0 -6
-219 -7 -486 l-2 -484 1472 2 1472 2 0 -1470 0 -1470 573 -3 572 -2 2 1472 3
1473 1450 0 1450 0 3 485 2 485 -1452 0 -1453 0 -5 1540 -5 1540 -56 -55z"/>
</g>
</svg>
