<?xml version="1.0" encoding="UTF-8" standalone="no"?>
<!DOCTYPE svg PUBLIC "-//W3C//DTD SVG 1.1//EN" "http://www.w3.org/Graphics/SVG/1.1/DTD/svg11.dtd">
<svg width="100%" height="100%" viewBox="0 0 10 18" version="1.1" xmlns="http://www.w3.org/2000/svg" xmlns:xlink="http://www.w3.org/1999/xlink" xml:space="preserve" xmlns:serif="http://www.serif.com/" style="fill-rule:evenodd;clip-rule:evenodd;stroke-linejoin:round;stroke-miterlimit:1.41421;">
    <g id="arrow" transform="matrix(1,0,0,1,-965,-360)">
        <path d="M973.777,367.767L965,376.75L966.218,378L975,369.013L973.777,367.767ZM966.219,360L965,361.246L973.777,370.229L975,368.982L966.219,360Z" style="fill:rgb(198,0,126);"/>
    </g>
    <g transform="matrix(1.02581,-1.01015,0.887029,0.90078,-3.18058,4.56573)">
        <rect x="2.862" y="8.478" width="1.492" height="1.346" style="fill:rgb(198,0,126);"/>
    </g>
    <path d="M8.436,7.613L8.448,7.614L8.46,7.615L8.472,7.616L8.485,7.617L8.497,7.619L8.509,7.621L8.521,7.623L8.533,7.626L8.545,7.628L8.556,7.632L8.568,7.635L8.58,7.639L8.591,7.643L8.603,7.647L8.614,7.652L8.625,7.656L8.636,7.661L8.647,7.667L8.658,7.672L8.669,7.678L8.679,7.685L8.69,7.691L8.7,7.698L8.71,7.705L8.72,7.712L8.73,7.719L8.739,7.727L8.749,7.735L8.758,7.743L8.767,7.751L8.775,7.76L8.784,7.768L8.792,7.777L8.8,7.786L8.806,7.793L8.819,7.806L8.831,7.817L8.838,7.822L8.848,7.829L8.858,7.836L8.868,7.843L8.878,7.851L8.887,7.858L8.896,7.866L8.905,7.875L8.914,7.883L8.923,7.892L8.931,7.9L8.939,7.909L8.947,7.919L8.955,7.928L8.963,7.938L8.97,7.948L8.977,7.958L8.984,7.968L8.99,7.978L8.997,7.988L9.004,8.001L9.02,8.01L9.032,8.018L9.043,8.025L9.053,8.031L9.063,8.038L9.072,8.046L9.082,8.053L9.091,8.061L9.1,8.069L9.109,8.077L9.118,8.086L9.127,8.095L9.135,8.103L9.143,8.112L9.151,8.122L9.159,8.131L9.166,8.141L9.171,8.147L9.181,8.156L9.189,8.163L9.197,8.17L9.205,8.178L9.213,8.186L9.224,8.197L9.232,8.205L9.239,8.214L9.246,8.222L9.253,8.231L9.26,8.24L9.266,8.249L9.275,8.262L9.282,8.272L9.288,8.282L9.294,8.292L9.3,8.303L9.306,8.313L9.311,8.324L9.316,8.335L9.323,8.35L9.327,8.361L9.332,8.372L9.336,8.384L9.34,8.395L9.343,8.407L9.347,8.419L9.35,8.431L9.352,8.443L9.355,8.454L9.357,8.466L9.359,8.483L9.361,8.495L9.362,8.507L9.363,8.519L9.363,8.531L9.364,8.543L9.364,8.555L9.364,8.567L9.363,8.579L9.362,8.591L9.361,8.603L9.36,8.615L9.358,8.627L9.356,8.639L9.354,8.651L9.351,8.663L9.348,8.675L9.347,8.679L9.344,8.69L9.341,8.701L9.337,8.712L9.333,8.724L9.329,8.735L9.325,8.745L9.32,8.756L9.316,8.767L9.31,8.778L9.305,8.788L9.299,8.798L9.294,8.809L9.288,8.819L9.281,8.829L9.275,8.838L9.268,8.848L9.261,8.857L9.254,8.867L9.246,8.876L9.239,8.885L9.236,8.888L9.228,8.897L9.22,8.905L9.212,8.913L9.203,8.921L9.195,8.929L9.186,8.937L9.177,8.945L9.168,8.952L9.159,8.959L9.149,8.966L9.14,8.972L9.13,8.979L9.12,8.985L9.115,8.988L9.104,8.994L9.094,9L9.083,9.006L9.073,9.011L9.062,9.016L9.051,9.021L9.04,9.026L9.034,9.028L9.023,9.033L9.011,9.037L8.999,9.04L8.988,9.044L8.976,9.047L8.964,9.05L8.957,9.052L8.947,9.054L8.937,9.056L8.927,9.058L8.917,9.06L8.906,9.061L8.896,9.062L8.889,9.063L8.877,9.064L8.865,9.065L8.852,9.066L8.84,9.066L8.828,9.066L8.815,9.066L8.801,9.065L8.789,9.065L8.778,9.064L8.766,9.063L8.754,9.061L8.743,9.06L8.731,9.058L8.727,9.057L8.725,9.059L8.719,9.07L8.712,9.08L8.705,9.09L8.698,9.099L8.691,9.109L8.683,9.118L8.682,9.12L8.674,9.129L8.666,9.138L8.658,9.147L8.649,9.155L8.64,9.164L8.631,9.172L8.622,9.18L8.613,9.187L8.603,9.195L8.594,9.202L8.584,9.209L8.574,9.216L8.564,9.223L8.553,9.229L8.543,9.235L8.532,9.241L8.521,9.246L8.51,9.252L8.499,9.257L8.488,9.261L8.477,9.266L8.466,9.27L8.454,9.274L8.443,9.278L8.431,9.281L8.419,9.284L8.408,9.287L8.396,9.289L8.384,9.292L8.372,9.293L8.36,9.295L8.348,9.296L8.336,9.298L8.324,9.298L8.312,9.299L8.299,9.299L8.287,9.299L8.275,9.298L8.263,9.298L8.251,9.297L8.249,9.296L8.237,9.295L8.225,9.294L8.214,9.292L8.202,9.29L8.191,9.288L8.179,9.285L8.168,9.282L8.156,9.279L8.145,9.276L8.134,9.272L8.123,9.268L8.112,9.264L8.101,9.259L8.09,9.255L8.08,9.25L8.069,9.244L8.059,9.239L8.056,9.238L8.046,9.232L8.036,9.226L8.026,9.22L8.02,9.216L8.011,9.213L8,9.209L7.988,9.205L7.977,9.201L7.965,9.196L7.954,9.191L7.943,9.186L7.932,9.18L7.921,9.175L7.913,9.17L7.904,9.165L7.896,9.16L7.887,9.155L7.879,9.149L7.871,9.144L7.863,9.138L7.855,9.133L7.847,9.127L7.839,9.121L7.831,9.114L7.823,9.108L7.817,9.102L7.809,9.096L7.802,9.089L7.795,9.082L7.788,9.075L7.781,9.068L7.775,9.062L7.767,9.053L7.759,9.044L7.751,9.035L7.743,9.026L7.738,9.019L7.731,9.011L7.725,9.001L7.718,8.992L7.712,8.983L7.707,8.976L7.701,8.966L7.694,8.955L7.688,8.945L7.682,8.934L7.677,8.923L7.669,8.908L7.664,8.897L7.66,8.887L7.655,8.876L7.651,8.865L7.647,8.854L7.643,8.843L7.638,8.827L7.634,8.816L7.631,8.805L7.628,8.795L7.626,8.784L7.623,8.773L7.615,8.734L7.608,8.677L7.606,8.632L7.606,8.618L7.605,8.612L7.604,8.6L7.603,8.588L7.602,8.576L7.601,8.563L7.601,8.551L7.601,8.539L7.602,8.527L7.603,8.514L7.604,8.502L7.605,8.49L7.607,8.478L7.609,8.466L7.611,8.454L7.613,8.442L7.616,8.43L7.619,8.418L7.623,8.406L7.627,8.394L7.631,8.383L7.635,8.371L7.639,8.36L7.644,8.349L7.649,8.337L7.655,8.326L7.66,8.315L7.661,8.314L7.667,8.304L7.673,8.293L7.679,8.283L7.686,8.273L7.693,8.263L7.7,8.253L7.707,8.243L7.715,8.234L7.723,8.224L7.731,8.215L7.739,8.206L7.748,8.197L7.756,8.189L7.765,8.181L7.774,8.173L7.784,8.165L7.793,8.157L7.803,8.15L7.813,8.143L7.823,8.136L7.833,8.129L7.843,8.122L7.854,8.116L7.864,8.11L7.875,8.105L7.883,8.101L7.895,8.062L7.913,8.014L7.929,7.971L7.949,7.926L7.975,7.879L7.996,7.847L8.003,7.837L8.01,7.827L8.017,7.817L8.024,7.807L8.032,7.798L8.04,7.789L8.045,7.783L8.053,7.774L8.062,7.765L8.07,7.757L8.079,7.748L8.088,7.74L8.097,7.732L8.107,7.724L8.116,7.717L8.126,7.709L8.136,7.702L8.146,7.696L8.156,7.689L8.166,7.683L8.177,7.677L8.188,7.671L8.199,7.665L8.209,7.66L8.221,7.655L8.232,7.65L8.243,7.646L8.254,7.642L8.266,7.638L8.278,7.634L8.289,7.631L8.301,7.628L8.313,7.625L8.314,7.625L8.326,7.622L8.338,7.62L8.351,7.618L8.363,7.617L8.375,7.615L8.387,7.614L8.399,7.614L8.411,7.613L8.424,7.613L8.436,7.613ZM9.126,8.789L9.118,8.798L9.109,8.806L9.094,8.82L9.122,8.796L9.129,8.786L9.126,8.789ZM7.607,8.634L7.61,8.65L7.607,8.624L7.606,8.622L7.607,8.634ZM8.917,7.938L8.923,7.948L8.927,7.955L8.929,7.956L8.924,7.945L8.912,7.93L8.917,7.938ZM8.913,7.933L8.909,7.926L8.908,7.925L8.913,7.933ZM8.903,7.916L8.907,7.922L8.905,7.918L8.902,7.913L8.903,7.916Z" style="fill:rgb(198,0,126);"/>
    <path d="M8.08,8.293L8.1,8.294L8.12,8.295L8.14,8.297L8.16,8.3L8.18,8.304L8.199,8.309L8.219,8.314L8.238,8.321L8.257,8.328L8.275,8.335L8.294,8.344L8.312,8.353L8.329,8.363L8.346,8.373L8.363,8.385L8.379,8.397L8.395,8.409L8.41,8.422L8.418,8.43L8.436,8.439L8.454,8.448L8.471,8.458L8.488,8.469L8.505,8.481L8.521,8.493L8.536,8.506L8.551,8.52L8.565,8.534L8.579,8.548L8.592,8.564L8.605,8.579L8.617,8.595L8.628,8.612L8.639,8.629L8.649,8.647L8.658,8.665L8.666,8.683L8.674,8.702L8.681,8.72L8.687,8.74L8.693,8.759L8.697,8.779L8.701,8.798L8.704,8.818L8.706,8.838L8.708,8.858L8.708,8.879L8.708,8.885L8.708,8.892L8.708,8.899L8.708,8.905L8.708,8.912L8.707,8.919L8.707,8.925L8.706,8.932L8.705,8.939L8.705,8.946L8.704,8.952L8.703,8.959L8.702,8.965L8.701,8.972L8.699,8.979L8.698,8.985L8.697,8.992L8.695,8.998L8.694,9.005L8.692,9.011L8.69,9.018L8.688,9.024L8.686,9.031L8.684,9.037L8.682,9.044L8.68,9.05L8.678,9.056L8.675,9.062L8.673,9.069L8.67,9.075L8.668,9.081L8.665,9.087L8.662,9.093L8.661,9.097L8.66,9.1L8.659,9.107L8.658,9.114L8.656,9.12L8.655,9.127L8.653,9.133L8.651,9.14L8.65,9.146L8.648,9.153L8.646,9.159L8.644,9.166L8.642,9.172L8.64,9.178L8.637,9.185L8.635,9.191L8.633,9.197L8.63,9.203L8.628,9.21L8.625,9.216L8.622,9.222L8.619,9.228L8.616,9.234L8.613,9.24L8.61,9.246L8.607,9.252L8.604,9.258L8.601,9.264L8.597,9.269L8.594,9.275L8.59,9.281L8.587,9.286L8.583,9.292L8.579,9.298L8.575,9.303L8.571,9.309L8.567,9.314L8.563,9.319L8.559,9.325L8.555,9.33L8.551,9.335L8.546,9.34L8.542,9.345L8.537,9.35L8.533,9.355L8.528,9.36L8.524,9.365L8.519,9.37L8.514,9.374L8.509,9.379L8.504,9.383L8.499,9.388L8.494,9.392L8.489,9.397L8.484,9.401L8.479,9.405L8.473,9.409L8.468,9.413L8.463,9.417L8.457,9.421L8.452,9.425L8.446,9.429L8.441,9.433L8.435,9.436L8.429,9.44L8.423,9.443L8.418,9.447L8.412,9.45L8.406,9.453L8.4,9.456L8.394,9.459L8.388,9.462L8.382,9.465L8.376,9.468L8.37,9.471L8.364,9.474L8.357,9.476L8.351,9.479L8.345,9.481L8.339,9.483L8.332,9.486L8.326,9.488L8.32,9.49L8.313,9.492L8.307,9.494L8.3,9.496L8.294,9.497L8.287,9.499L8.281,9.501L8.274,9.502L8.268,9.503L8.261,9.505L8.254,9.506L8.248,9.507L8.241,9.508L8.235,9.509L8.228,9.51L8.221,9.511L8.215,9.511L8.208,9.512L8.201,9.512L8.194,9.513L8.188,9.513L8.181,9.513L8.174,9.514L8.168,9.514L8.161,9.514L8.154,9.513L8.148,9.513L8.141,9.514L8.134,9.515L8.128,9.516L8.121,9.516L8.114,9.517L8.108,9.517L8.101,9.518L8.094,9.518L8.088,9.518L8.081,9.518L8.074,9.519L8.068,9.518L8.061,9.518L8.054,9.518L8.047,9.518L8.041,9.517L8.034,9.517L8.027,9.516L8.021,9.516L8.014,9.515L8.007,9.514L8.001,9.513L7.994,9.512L7.987,9.511L7.981,9.51L7.974,9.508L7.968,9.507L7.961,9.505L7.955,9.504L7.948,9.502L7.942,9.501L7.935,9.499L7.929,9.497L7.922,9.495L7.916,9.493L7.91,9.49L7.903,9.488L7.897,9.486L7.891,9.483L7.885,9.481L7.878,9.478L7.872,9.476L7.866,9.473L7.86,9.47L7.854,9.467L7.848,9.464L7.842,9.461L7.836,9.458L7.83,9.455L7.824,9.451L7.819,9.448L7.813,9.445L7.807,9.441L7.802,9.437L7.796,9.434L7.79,9.43L7.785,9.426L7.78,9.422L7.774,9.418L7.769,9.414L7.764,9.41L7.758,9.406L7.753,9.401L7.748,9.397L7.743,9.393L7.738,9.388L7.733,9.384L7.728,9.379L7.723,9.374L7.719,9.37L7.714,9.365L7.709,9.36L7.705,9.355L7.7,9.35L7.696,9.345L7.692,9.34L7.687,9.335L7.683,9.329L7.679,9.324L7.675,9.319L7.671,9.313L7.667,9.308L7.663,9.302L7.659,9.297L7.656,9.291L7.652,9.286L7.649,9.28L7.645,9.274L7.642,9.268L7.638,9.263L7.635,9.257L7.632,9.251L7.629,9.245L7.626,9.239L7.623,9.233L7.62,9.227L7.617,9.221L7.615,9.214L7.612,9.208L7.61,9.202L7.607,9.196L7.605,9.189L7.603,9.183L7.6,9.177L7.598,9.17L7.596,9.164L7.594,9.158L7.593,9.151L7.591,9.145L7.589,9.138L7.588,9.132L7.586,9.125L7.585,9.118L7.584,9.112L7.582,9.105L7.581,9.099L7.58,9.092L7.579,9.085L7.578,9.079L7.578,9.072L7.577,9.065L7.576,9.059L7.576,9.052L7.575,9.045L7.575,9.039L7.575,9.032L7.575,9.025L7.575,9.019L7.575,9.007L7.575,8.98L7.576,8.955L7.576,8.948L7.577,8.942L7.577,8.935L7.578,8.928L7.579,8.922L7.58,8.915L7.581,8.908L7.582,8.9L7.579,8.874L7.575,8.83L7.575,8.824L7.575,8.817L7.575,8.811L7.574,8.805L7.574,8.799L7.574,8.793L7.574,8.787L7.574,8.781L7.575,8.775L7.575,8.768L7.575,8.762L7.575,8.761L7.576,8.754L7.576,8.747L7.577,8.74L7.578,8.734L7.579,8.727L7.58,8.72L7.581,8.714L7.582,8.707L7.583,8.701L7.584,8.694L7.586,8.687L7.587,8.681L7.589,8.674L7.59,8.668L7.592,8.661L7.594,8.655L7.596,8.648L7.598,8.642L7.6,8.636L7.602,8.629L7.604,8.623L7.606,8.617L7.609,8.61L7.611,8.604L7.614,8.598L7.617,8.592L7.619,8.586L7.622,8.58L7.625,8.574L7.628,8.568L7.631,8.562L7.634,8.556L7.638,8.55L7.641,8.544L7.644,8.538L7.648,8.532L7.651,8.527L7.655,8.521L7.659,8.515L7.662,8.51L7.666,8.504L7.67,8.499L7.674,8.494L7.678,8.488L7.682,8.483L7.686,8.478L7.691,8.472L7.695,8.467L7.699,8.462L7.704,8.457L7.708,8.452L7.713,8.447L7.718,8.443L7.722,8.438L7.727,8.433L7.732,8.429L7.737,8.424L7.742,8.419L7.747,8.415L7.752,8.411L7.757,8.406L7.763,8.402L7.768,8.398L7.773,8.394L7.779,8.39L7.784,8.386L7.789,8.382L7.795,8.378L7.801,8.375L7.806,8.371L7.812,8.367L7.818,8.364L7.823,8.361L7.829,8.357L7.835,8.354L7.841,8.351L7.847,8.348L7.853,8.345L7.859,8.342L7.865,8.339L7.871,8.336L7.877,8.333L7.884,8.331L7.89,8.328L7.896,8.326L7.902,8.324L7.909,8.321L7.915,8.319L7.921,8.317L7.928,8.315L7.934,8.313L7.941,8.311L7.947,8.309L7.954,8.308L7.96,8.306L7.967,8.305L7.973,8.303L7.98,8.302L7.986,8.301L7.993,8.3L8,8.299L8.006,8.298L8.013,8.297L8.02,8.296L8.026,8.295L8.033,8.295L8.04,8.294L8.046,8.294L8.053,8.293L8.06,8.293L8.067,8.293L8.073,8.293L8.08,8.293ZM7.598,8.944L7.61,8.989L7.617,9.001L7.615,8.995L7.612,8.989L7.61,8.983L7.608,8.977L7.606,8.971L7.604,8.964L7.602,8.958L7.6,8.952L7.598,8.946L7.598,8.944L7.598,8.944Z" style="fill:rgb(198,0,126);"/>
    <path d="M8.583,8.837L8.594,8.837L8.605,8.838L8.616,8.839L8.627,8.84L8.638,8.841L8.649,8.842L8.659,8.844L8.67,8.846L8.681,8.848L8.692,8.851L8.702,8.853L8.713,8.856L8.723,8.86L8.734,8.863L8.744,8.867L8.755,8.87L8.765,8.875L8.775,8.879L8.785,8.883L8.795,8.888L8.805,8.893L8.814,8.898L8.824,8.904L8.833,8.909L8.843,8.915L8.852,8.921L8.861,8.927L8.87,8.934L8.879,8.94L8.887,8.947L8.896,8.954L8.904,8.961L8.912,8.968L8.92,8.976L8.928,8.984L8.936,8.991L8.943,9L8.951,9.008L8.958,9.016L8.965,9.025L8.971,9.033L8.978,9.042L8.984,9.051L8.991,9.06L8.997,9.069L9.002,9.079L9.008,9.088L9.013,9.098L9.018,9.107L9.023,9.117L9.028,9.127L9.033,9.137L9.037,9.147L9.041,9.157L9.045,9.168L9.048,9.178L9.052,9.189L9.055,9.199L9.058,9.21L9.06,9.22L9.063,9.231L9.065,9.242L9.067,9.253L9.069,9.263L9.07,9.274L9.072,9.285L9.073,9.303L9.079,9.319L9.082,9.33L9.085,9.34L9.088,9.351L9.091,9.361L9.093,9.372L9.096,9.383L9.098,9.393L9.099,9.404L9.101,9.415L9.102,9.426L9.103,9.437L9.104,9.448L9.105,9.459L9.105,9.469L9.105,9.48L9.105,9.491L9.104,9.507L9.103,9.541L9.101,9.573L9.104,9.63L9.104,9.668L9.104,9.677L9.104,9.687L9.103,9.696L9.102,9.706L9.101,9.716L9.099,9.736L9.098,9.747L9.097,9.757L9.095,9.768L9.093,9.779L9.091,9.79L9.089,9.799L9.086,9.809L9.084,9.818L9.081,9.828L9.079,9.838L9.076,9.847L9.073,9.856L9.07,9.866L9.066,9.876L9.062,9.885L9.058,9.895L9.054,9.905L9.05,9.914L9.046,9.922L9.042,9.931L9.037,9.94L9.033,9.948L9.028,9.957L9.023,9.965L9.018,9.973L9.013,9.982L9.008,9.99L9.003,9.997L8.997,10.005L8.991,10.014L8.984,10.023L8.977,10.031L8.97,10.039L8.963,10.048L8.956,10.056L8.949,10.063L8.943,10.07L8.936,10.077L8.929,10.084L8.926,10.086L8.921,10.094L8.916,10.102L8.91,10.11L8.904,10.118L8.898,10.126L8.892,10.133L8.886,10.141L8.88,10.148L8.873,10.156L8.866,10.163L8.859,10.17L8.853,10.177L8.846,10.184L8.839,10.191L8.831,10.197L8.824,10.204L8.816,10.21L8.809,10.216L8.801,10.223L8.801,10.223L8.801,10.223L8.794,10.231L8.787,10.239L8.78,10.247L8.772,10.255L8.765,10.263L8.762,10.265L8.755,10.272L8.747,10.279L8.74,10.286L8.732,10.292L8.724,10.299L8.716,10.305L8.708,10.311L8.7,10.317L8.691,10.323L8.683,10.328L8.68,10.331L8.671,10.336L8.662,10.342L8.653,10.347L8.643,10.352L8.634,10.357L8.624,10.361L8.615,10.366L8.605,10.37L8.597,10.374L8.592,10.376L8.587,10.379L8.577,10.384L8.567,10.389L8.558,10.394L8.548,10.399L8.538,10.403L8.527,10.408L8.517,10.412L8.507,10.415L8.496,10.419L8.486,10.422L8.475,10.425L8.465,10.428L8.454,10.431L8.443,10.433L8.433,10.435L8.422,10.437L8.411,10.439L8.4,10.44L8.389,10.441L8.378,10.442L8.367,10.443L8.356,10.444L8.345,10.444L8.334,10.444L8.323,10.444L8.312,10.443L8.301,10.442L8.29,10.441L8.279,10.44L8.268,10.439L8.258,10.437L8.247,10.435L8.236,10.433L8.225,10.43L8.215,10.428L8.204,10.425L8.194,10.422L8.183,10.418L8.173,10.415L8.162,10.411L8.152,10.407L8.142,10.403L8.132,10.398L8.122,10.394L8.112,10.389L8.102,10.383L8.093,10.378L8.083,10.373L8.074,10.367L8.065,10.361L8.056,10.355L8.047,10.348L8.038,10.342L8.029,10.335L8.021,10.328L8.012,10.321L8.004,10.314L7.996,10.306L7.988,10.299L7.981,10.291L7.973,10.283L7.966,10.275L7.958,10.266L7.951,10.258L7.945,10.249L7.938,10.24L7.932,10.231L7.925,10.222L7.919,10.213L7.914,10.204L7.908,10.194L7.903,10.185L7.897,10.175L7.892,10.165L7.888,10.155L7.883,10.145L7.879,10.135L7.875,10.125L7.871,10.115L7.867,10.104L7.864,10.094L7.861,10.084L7.858,10.073L7.855,10.062L7.852,10.052L7.85,10.041L7.848,10.03L7.846,10.019L7.845,10.008L7.844,9.997L7.842,9.986L7.842,9.985L7.842,9.974L7.841,9.964L7.841,9.954L7.84,9.943L7.841,9.933L7.841,9.922L7.841,9.912L7.842,9.901L7.843,9.891L7.844,9.88L7.846,9.87L7.847,9.86L7.849,9.849L7.851,9.839L7.854,9.829L7.856,9.819L7.863,9.785L7.867,9.776L7.874,9.752L7.884,9.719L7.903,9.672L7.932,9.613L7.962,9.559L7.998,9.502L8.039,9.446L8.06,9.421L8.061,9.418L8.065,9.395L8.069,9.366L8.073,9.331L8.076,9.29L8.078,9.279L8.079,9.268L8.081,9.257L8.082,9.246L8.085,9.235L8.087,9.225L8.09,9.214L8.092,9.203L8.095,9.193L8.099,9.182L8.102,9.172L8.106,9.162L8.11,9.151L8.114,9.141L8.118,9.131L8.123,9.121L8.128,9.111L8.133,9.101L8.138,9.092L8.144,9.082L8.149,9.073L8.155,9.064L8.161,9.055L8.168,9.046L8.174,9.037L8.181,9.028L8.188,9.019L8.195,9.011L8.202,9.003L8.21,8.995L8.217,8.987L8.225,8.979L8.233,8.971L8.241,8.964L8.249,8.957L8.258,8.95L8.266,8.943L8.275,8.936L8.284,8.93L8.293,8.923L8.302,8.917L8.311,8.911L8.321,8.906L8.33,8.9L8.34,8.895L8.35,8.89L8.36,8.885L8.369,8.881L8.38,8.876L8.39,8.872L8.4,8.868L8.41,8.864L8.421,8.861L8.431,8.858L8.442,8.855L8.452,8.852L8.463,8.849L8.474,8.847L8.485,8.845L8.495,8.843L8.506,8.841L8.517,8.84L8.528,8.839L8.539,8.838L8.55,8.837L8.561,8.837L8.572,8.837L8.583,8.837ZM8.902,10.023L8.9,10.03L8.902,10.026L8.904,10.014L8.902,10.023ZM7.856,9.819L7.856,9.819L7.853,9.835L7.857,9.815L7.856,9.819ZM7.867,9.776L7.861,9.797L7.857,9.815L7.859,9.808L7.859,9.806L7.862,9.795L7.866,9.785L7.869,9.775L7.873,9.764L7.875,9.758L7.867,9.776ZM7.931,9.778L7.928,9.796L7.932,9.776L7.933,9.772L7.931,9.778Z" style="fill:rgb(198,0,126);"/>
    <path d="M9.007,8.194L9.026,8.195L9.045,8.196L9.064,8.198L9.083,8.201L9.102,8.205L9.121,8.209L9.139,8.214L9.159,8.221L9.178,8.227L9.196,8.235L9.213,8.243L9.231,8.251L9.248,8.26L9.264,8.27L9.281,8.281L9.296,8.292L9.312,8.304L9.327,8.317L9.341,8.33L9.355,8.343L9.368,8.357L9.381,8.372L9.393,8.387L9.399,8.394L9.4,8.395L9.433,8.429L9.456,8.456L9.462,8.464L9.475,8.477L9.503,8.503L9.537,8.535L9.55,8.549L9.564,8.563L9.576,8.578L9.589,8.594L9.6,8.609L9.611,8.625L9.621,8.642L9.631,8.659L9.64,8.676L9.648,8.694L9.656,8.712L9.663,8.73L9.669,8.749L9.674,8.768L9.679,8.786L9.683,8.806L9.686,8.825L9.688,8.844L9.69,8.864L9.691,8.883L9.691,8.893L9.691,8.903L9.691,8.912L9.691,8.922L9.69,8.932L9.689,8.942L9.688,8.951L9.687,8.961L9.686,8.971L9.684,8.98L9.682,8.99L9.68,8.999L9.678,9.009L9.676,9.019L9.674,9.028L9.671,9.037L9.668,9.047L9.665,9.056L9.662,9.065L9.659,9.074L9.655,9.083L9.651,9.092L9.647,9.101L9.643,9.11L9.639,9.119L9.635,9.128L9.63,9.136L9.625,9.145L9.62,9.153L9.615,9.162L9.61,9.17L9.605,9.178L9.599,9.186L9.593,9.194L9.588,9.202L9.581,9.209L9.575,9.217L9.569,9.224L9.563,9.232L9.556,9.239L9.549,9.246L9.542,9.253L9.535,9.26L9.528,9.266L9.521,9.273L9.513,9.279L9.506,9.285L9.498,9.291L9.491,9.297L9.488,9.299L9.488,9.299L9.485,9.309L9.482,9.318L9.478,9.33L9.474,9.339L9.471,9.348L9.467,9.357L9.463,9.366L9.459,9.375L9.455,9.384L9.451,9.393L9.446,9.401L9.44,9.412L9.435,9.421L9.43,9.429L9.425,9.438L9.42,9.446L9.415,9.454L9.409,9.462L9.404,9.47L9.398,9.478L9.392,9.486L9.386,9.493L9.379,9.501L9.373,9.508L9.366,9.515L9.36,9.522L9.353,9.529L9.346,9.536L9.339,9.543L9.331,9.549L9.324,9.556L9.317,9.562L9.309,9.568L9.301,9.574L9.293,9.58L9.285,9.585L9.277,9.591L9.269,9.596L9.261,9.601L9.253,9.606L9.244,9.611L9.235,9.616L9.227,9.62L9.218,9.625L9.209,9.629L9.2,9.633L9.191,9.637L9.182,9.64L9.173,9.644L9.164,9.647L9.155,9.65L9.145,9.653L9.136,9.656L9.127,9.659L9.117,9.661L9.108,9.663L9.098,9.665L9.089,9.667L9.079,9.669L9.069,9.67L9.06,9.671L9.05,9.672L9.04,9.673L9.031,9.674L9.021,9.674L9.011,9.675L9.001,9.675L8.992,9.675L8.982,9.675L8.972,9.674L8.962,9.673L8.953,9.673L8.943,9.672L8.933,9.67L8.924,9.669L8.914,9.667L8.904,9.666L8.895,9.664L8.885,9.661L8.876,9.659L8.866,9.657L8.857,9.654L8.848,9.651L8.838,9.648L8.829,9.645L8.82,9.641L8.811,9.638L8.802,9.634L8.793,9.63L8.784,9.626L8.775,9.622L8.767,9.617L8.758,9.612L8.75,9.608L8.741,9.603L8.733,9.598L8.725,9.592L8.717,9.587L8.709,9.581L8.701,9.575L8.693,9.57L8.685,9.563L8.678,9.557L8.671,9.551L8.663,9.544L8.656,9.538L8.649,9.531L8.642,9.524L8.635,9.517L8.629,9.51L8.622,9.503L8.616,9.495L8.61,9.488L8.604,9.48L8.598,9.472L8.592,9.464L8.587,9.456L8.581,9.448L8.576,9.44L8.571,9.432L8.566,9.423L8.561,9.415L8.557,9.406L8.552,9.397L8.548,9.388L8.544,9.38L8.54,9.371L8.536,9.362L8.533,9.353L8.529,9.343L8.526,9.334L8.523,9.325L8.52,9.316L8.518,9.306L8.515,9.297L8.513,9.287L8.511,9.278L8.509,9.268L8.507,9.259L8.506,9.249L8.504,9.239L8.503,9.23L8.502,9.22L8.501,9.21L8.501,9.2L8.5,9.191L8.5,9.181L8.5,9.171L8.5,9.161L8.501,9.152L8.501,9.142L8.502,9.132L8.503,9.123L8.504,9.113L8.505,9.103L8.507,9.094L8.508,9.084L8.51,9.074L8.512,9.065L8.515,9.055L8.517,9.046L8.52,9.036L8.521,9.033L8.525,8.979L8.526,8.963L8.526,8.946L8.526,8.929L8.526,8.913L8.525,8.9L8.52,8.883L8.508,8.839L8.502,8.807L8.501,8.799L8.499,8.79L8.498,8.782L8.497,8.773L8.496,8.764L8.495,8.756L8.495,8.747L8.494,8.738L8.494,8.726L8.493,8.716L8.493,8.707L8.493,8.697L8.493,8.687L8.494,8.677L8.494,8.668L8.495,8.658L8.496,8.648L8.497,8.638L8.499,8.629L8.5,8.619L8.502,8.61L8.503,8.605L8.505,8.596L8.507,8.586L8.509,8.577L8.511,8.567L8.514,8.558L8.517,8.549L8.52,8.54L8.523,8.53L8.526,8.521L8.53,8.512L8.533,8.503L8.537,8.495L8.541,8.486L8.545,8.477L8.55,8.468L8.554,8.46L8.559,8.451L8.561,8.448L8.565,8.44L8.57,8.432L8.575,8.424L8.581,8.416L8.586,8.408L8.592,8.4L8.597,8.392L8.603,8.385L8.609,8.377L8.615,8.37L8.622,8.363L8.628,8.356L8.635,8.349L8.641,8.342L8.648,8.335L8.655,8.329L8.662,8.322L8.669,8.316L8.677,8.31L8.684,8.304L8.692,8.298L8.699,8.292L8.707,8.286L8.715,8.281L8.723,8.276L8.731,8.271L8.739,8.266L8.747,8.261L8.756,8.256L8.758,8.255L8.766,8.251L8.775,8.246L8.783,8.242L8.792,8.238L8.801,8.234L8.81,8.23L8.819,8.227L8.828,8.224L8.837,8.22L8.846,8.217L8.855,8.215L8.864,8.212L8.873,8.209L8.883,8.207L8.892,8.205L8.902,8.203L8.911,8.201L8.921,8.2L8.93,8.198L8.94,8.197L8.949,8.196L8.959,8.195L8.968,8.195L8.978,8.194L8.988,8.194L8.997,8.194L9.007,8.194ZM8.575,8.962L8.581,8.97L8.579,8.967L8.574,8.958L8.569,8.95L8.565,8.941L8.56,8.933L8.575,8.962ZM8.548,8.96L8.545,8.967L8.547,8.963L8.551,8.955L8.556,8.946L8.56,8.937L8.548,8.96ZM9.433,8.445L9.442,8.461L9.451,8.477L9.437,8.45L9.432,8.442L9.433,8.445Z" style="fill:rgb(198,0,126);"/>
    <path d="M9.273,8.48L9.296,8.481L9.32,8.483L9.343,8.485L9.366,8.489L9.389,8.495L9.411,8.501L9.433,8.508L9.455,8.516L9.477,8.525L9.498,8.536L9.518,8.547L9.538,8.559L9.558,8.572L9.577,8.586L9.595,8.601L9.612,8.617L9.629,8.633L9.644,8.65L9.66,8.668L9.674,8.687L9.687,8.706L9.699,8.726L9.711,8.746L9.721,8.767L9.731,8.789L9.739,8.81L9.746,8.833L9.753,8.855L9.758,8.878L9.762,8.901L9.765,8.924L9.768,8.947L9.769,8.971L9.769,8.981L9.769,8.984L9.769,8.988L9.768,8.991L9.768,8.994L9.768,8.998L9.768,9.001L9.768,9.004L9.768,9.008L9.768,9.011L9.767,9.014L9.767,9.018L9.767,9.021L9.767,9.024L9.766,9.028L9.766,9.031L9.766,9.034L9.765,9.043L9.764,9.046L9.764,9.049L9.764,9.052L9.763,9.056L9.763,9.059L9.762,9.062L9.762,9.065L9.761,9.068L9.761,9.072L9.76,9.075L9.76,9.078L9.759,9.081L9.758,9.084L9.758,9.087L9.757,9.091L9.756,9.094L9.756,9.097L9.755,9.1L9.754,9.103L9.754,9.106L9.753,9.11L9.752,9.113L9.751,9.116L9.75,9.119L9.75,9.122L9.749,9.125L9.748,9.128L9.745,9.137L9.744,9.141L9.743,9.144L9.742,9.147L9.741,9.15L9.74,9.153L9.739,9.156L9.738,9.159L9.737,9.162L9.736,9.165L9.735,9.168L9.734,9.172L9.733,9.175L9.732,9.178L9.73,9.181L9.729,9.184L9.728,9.187L9.727,9.19L9.725,9.193L9.724,9.196L9.723,9.199L9.722,9.202L9.72,9.205L9.716,9.214L9.715,9.217L9.713,9.22L9.712,9.223L9.71,9.226L9.709,9.229L9.708,9.232L9.706,9.234L9.705,9.237L9.703,9.24L9.702,9.243L9.7,9.246L9.699,9.249L9.697,9.252L9.695,9.254L9.694,9.257L9.692,9.26L9.69,9.263L9.689,9.266L9.687,9.268L9.685,9.271L9.684,9.274L9.678,9.283L9.676,9.286L9.674,9.288L9.673,9.291L9.671,9.294L9.669,9.297L9.667,9.299L9.665,9.302L9.663,9.305L9.661,9.308L9.659,9.31L9.657,9.313L9.655,9.316L9.653,9.318L9.651,9.321L9.649,9.324L9.647,9.326L9.645,9.329L9.643,9.332L9.641,9.334L9.639,9.337L9.637,9.339L9.635,9.342L9.628,9.35L9.626,9.352L9.623,9.355L9.621,9.357L9.619,9.359L9.617,9.362L9.615,9.364L9.612,9.367L9.61,9.369L9.608,9.371L9.606,9.374L9.603,9.376L9.601,9.378L9.599,9.381L9.596,9.383L9.594,9.385L9.592,9.387L9.589,9.39L9.587,9.392L9.585,9.394L9.582,9.396L9.58,9.398L9.577,9.401L9.575,9.403L9.572,9.405L9.57,9.407L9.567,9.409L9.565,9.411L9.557,9.417L9.555,9.419L9.552,9.422L9.549,9.424L9.547,9.426L9.544,9.428L9.541,9.43L9.539,9.432L9.536,9.434L9.533,9.436L9.531,9.438L9.528,9.439L9.525,9.441L9.523,9.443L9.52,9.445L9.517,9.447L9.514,9.449L9.511,9.451L9.509,9.452L9.506,9.454L9.503,9.456L9.5,9.458L9.497,9.459L9.494,9.461L9.492,9.463L9.489,9.464L9.486,9.466L9.483,9.468L9.48,9.469L9.477,9.471L9.474,9.472L9.471,9.474L9.468,9.475L9.465,9.477L9.462,9.478L9.454,9.483L9.451,9.484L9.448,9.486L9.445,9.487L9.442,9.488L9.439,9.49L9.436,9.491L9.433,9.492L9.43,9.494L9.427,9.495L9.424,9.496L9.421,9.498L9.418,9.499L9.415,9.5L9.411,9.501L9.408,9.502L9.405,9.504L9.402,9.505L9.399,9.506L9.396,9.507L9.393,9.508L9.39,9.509L9.387,9.51L9.383,9.511L9.38,9.512L9.377,9.513L9.374,9.514L9.371,9.515L9.368,9.516L9.364,9.517L9.361,9.518L9.358,9.518L9.355,9.519L9.35,9.52L9.347,9.521L9.344,9.522L9.341,9.523L9.338,9.523L9.335,9.524L9.331,9.525L9.328,9.525L9.325,9.526L9.322,9.527L9.319,9.527L9.315,9.528L9.312,9.528L9.309,9.529L9.306,9.529L9.303,9.53L9.299,9.53L9.296,9.531L9.293,9.531L9.29,9.532L9.287,9.532L9.283,9.532L9.28,9.533L9.277,9.533L9.274,9.533L9.27,9.534L9.266,9.534L9.262,9.534L9.259,9.535L9.256,9.535L9.252,9.535L9.249,9.535L9.246,9.535L9.242,9.536L9.239,9.536L9.236,9.536L9.232,9.536L9.229,9.536L9.226,9.536L9.222,9.536L9.219,9.536L9.216,9.536L9.212,9.536L9.209,9.536L9.206,9.536L9.202,9.536L9.199,9.535L9.196,9.535L9.192,9.535L9.189,9.535L9.186,9.535L9.182,9.534L9.179,9.534L9.176,9.534L9.172,9.533L9.169,9.533L9.166,9.533L9.162,9.532L9.159,9.532L9.156,9.531L9.152,9.531L9.149,9.53L9.146,9.53L9.143,9.529L9.139,9.529L9.136,9.528L9.133,9.528L9.129,9.527L9.126,9.526L9.123,9.526L9.12,9.525L9.116,9.524L9.113,9.524L9.11,9.523L9.107,9.522L9.103,9.521L9.1,9.521L9.097,9.52L9.094,9.519L9.09,9.518L9.087,9.517L9.084,9.516L9.081,9.515L9.078,9.514L9.074,9.513L9.071,9.512L9.068,9.511L9.065,9.51L9.062,9.509L9.058,9.508L9.055,9.507L9.052,9.506L9.049,9.505L9.046,9.503L9.043,9.502L9.04,9.501L9.037,9.5L9.033,9.499L9.03,9.497L9.027,9.496L9.024,9.495L9.021,9.493L9.018,9.492L9.015,9.491L9.012,9.489L9.009,9.488L9.006,9.486L9.003,9.485L9,9.483L8.997,9.482L8.994,9.48L8.991,9.479L8.988,9.477L8.985,9.476L8.982,9.474L8.979,9.472L8.976,9.471L8.973,9.469L8.971,9.467L8.968,9.466L8.965,9.464L8.962,9.462L8.959,9.461L8.956,9.459L8.953,9.457L8.951,9.455L8.948,9.453L8.945,9.452L8.942,9.45L8.94,9.448L8.937,9.446L8.934,9.444L8.931,9.442L8.929,9.44L8.926,9.438L8.923,9.436L8.921,9.434L8.918,9.432L8.915,9.43L8.913,9.428L8.91,9.426L8.907,9.424L8.905,9.422L8.902,9.419L8.9,9.417L8.897,9.415L8.895,9.413L8.892,9.411L8.89,9.409L8.887,9.406L8.885,9.404L8.882,9.402L8.88,9.399L8.877,9.397L8.875,9.395L8.873,9.393L8.87,9.39L8.868,9.388L8.866,9.385L8.863,9.383L8.861,9.381L8.859,9.378L8.856,9.376L8.854,9.373L8.852,9.371L8.85,9.368L8.847,9.366L8.845,9.363L8.843,9.361L8.841,9.358L8.839,9.356L8.837,9.353L8.834,9.35L8.832,9.348L8.83,9.345L8.828,9.343L8.826,9.34L8.824,9.337L8.822,9.335L8.82,9.332L8.818,9.329L8.816,9.327L8.814,9.324L8.812,9.321L8.811,9.318L8.809,9.316L8.807,9.313L8.805,9.31L8.803,9.307L8.801,9.304L8.8,9.302L8.798,9.299L8.796,9.296L8.794,9.293L8.793,9.29L8.791,9.287L8.789,9.284L8.788,9.281L8.786,9.279L8.784,9.276L8.783,9.273L8.781,9.27L8.78,9.267L8.778,9.264L8.777,9.261L8.775,9.258L8.774,9.255L8.772,9.252L8.771,9.249L8.769,9.246L8.768,9.243L8.767,9.24L8.765,9.237L8.764,9.234L8.763,9.23L8.761,9.227L8.76,9.224L8.759,9.221L8.758,9.218L8.756,9.215L8.755,9.212L8.754,9.209L8.753,9.206L8.752,9.202L8.751,9.199L8.75,9.196L8.748,9.193L8.747,9.19L8.746,9.187L8.745,9.183L8.744,9.18L8.743,9.177L8.743,9.174L8.742,9.171L8.741,9.167L8.74,9.164L8.739,9.161L8.738,9.158L8.737,9.154L8.737,9.151L8.736,9.148L8.735,9.145L8.734,9.141L8.734,9.138L8.733,9.135L8.732,9.132L8.732,9.128L8.731,9.125L8.731,9.122L8.73,9.118L8.729,9.115L8.729,9.112L8.728,9.109L8.728,9.105L8.728,9.102L8.727,9.099L8.727,9.095L8.726,9.092L8.726,9.089L8.726,9.085L8.725,9.082L8.725,9.079L8.725,9.075L8.724,9.072L8.724,9.069L8.724,9.065L8.724,9.062L8.724,9.059L8.724,9.055L8.723,9.052L8.723,9.049L8.723,9.045L8.723,9.042L8.723,9.039L8.723,9.035L8.723,9.032L8.723,9.029L8.723,9.025L8.723,9.022L8.723,9.019L8.724,9.015L8.724,9.012L8.724,9.009L8.724,9.005L8.724,9.002L8.725,8.999L8.725,8.995L8.725,8.992L8.725,8.989L8.726,8.985L8.726,8.982L8.726,8.979L8.727,8.975L8.727,8.972L8.728,8.969L8.728,8.965L8.729,8.962L8.729,8.959L8.73,8.955L8.73,8.952L8.731,8.949L8.731,8.945L8.732,8.942L8.733,8.939L8.733,8.936L8.734,8.932L8.735,8.929L8.735,8.926L8.736,8.923L8.737,8.919L8.738,8.916L8.739,8.913L8.739,8.91L8.74,8.906L8.741,8.903L8.742,8.9L8.743,8.897L8.744,8.894L8.745,8.89L8.746,8.887L8.747,8.884L8.748,8.881L8.749,8.878L8.75,8.874L8.751,8.871L8.752,8.868L8.753,8.865L8.754,8.862L8.756,8.859L8.757,8.856L8.758,8.852L8.759,8.849L8.761,8.846L8.762,8.843L8.763,8.84L8.764,8.837L8.766,8.834L8.767,8.831L8.769,8.828L8.77,8.825L8.771,8.822L8.773,8.819L8.774,8.816L8.776,8.813L8.777,8.81L8.779,8.807L8.78,8.804L8.782,8.801L8.783,8.798L8.785,8.795L8.787,8.792L8.788,8.789L8.79,8.786L8.792,8.783L8.793,8.781L8.795,8.778L8.797,8.775L8.799,8.772L8.8,8.769L8.802,8.766L8.804,8.764L8.806,8.761L8.808,8.758L8.809,8.755L8.811,8.752L8.813,8.75L8.815,8.747L8.817,8.744L8.819,8.741L8.821,8.739L8.823,8.736L8.825,8.733L8.827,8.731L8.829,8.728L8.831,8.726L8.833,8.723L8.835,8.72L8.838,8.718L8.84,8.715L8.842,8.713L8.844,8.71L8.846,8.708L8.848,8.705L8.851,8.703L8.853,8.7L8.855,8.698L8.857,8.695L8.859,8.694L8.859,8.693L8.861,8.691L8.863,8.688L8.865,8.685L8.867,8.683L8.869,8.68L8.871,8.677L8.873,8.675L8.875,8.672L8.877,8.669L8.879,8.667L8.881,8.664L8.883,8.662L8.885,8.659L8.887,8.656L8.89,8.654L8.892,8.651L8.894,8.649L8.896,8.646L8.898,8.644L8.901,8.641L8.903,8.639L8.905,8.637L8.908,8.634L8.91,8.632L8.912,8.629L8.915,8.627L8.917,8.625L8.919,8.622L8.922,8.62L8.924,8.618L8.927,8.615L8.929,8.613L8.931,8.611L8.934,8.608L8.936,8.606L8.939,8.604L8.941,8.602L8.944,8.6L8.946,8.598L8.949,8.595L8.952,8.593L8.954,8.591L8.957,8.589L8.959,8.587L8.962,8.585L8.965,8.583L8.967,8.581L8.97,8.579L8.973,8.577L8.975,8.575L8.978,8.573L8.981,8.571L8.984,8.569L8.986,8.567L8.989,8.565L8.992,8.563L8.995,8.562L8.998,8.56L9,8.558L9.003,8.556L9.006,8.554L9.009,8.553L9.012,8.551L9.015,8.549L9.017,8.548L9.02,8.546L9.023,8.544L9.026,8.543L9.029,8.541L9.032,8.539L9.035,8.538L9.038,8.536L9.041,8.535L9.044,8.533L9.047,8.532L9.05,8.53L9.053,8.529L9.056,8.527L9.059,8.526L9.062,8.525L9.065,8.523L9.068,8.522L9.071,8.521L9.074,8.519L9.077,8.518L9.08,8.517L9.084,8.515L9.087,8.514L9.09,8.513L9.093,8.512L9.096,8.511L9.099,8.51L9.102,8.508L9.105,8.507L9.109,8.506L9.112,8.505L9.115,8.504L9.118,8.503L9.121,8.502L9.125,8.501L9.128,8.5L9.131,8.499L9.134,8.498L9.137,8.497L9.141,8.497L9.144,8.496L9.147,8.495L9.15,8.494L9.154,8.493L9.157,8.493L9.16,8.492L9.163,8.491L9.167,8.49L9.17,8.49L9.173,8.489L9.176,8.489L9.18,8.488L9.183,8.487L9.186,8.487L9.19,8.486L9.193,8.486L9.196,8.485L9.2,8.485L9.203,8.484L9.206,8.484L9.21,8.483L9.213,8.483L9.216,8.483L9.219,8.482L9.223,8.482L9.226,8.482L9.229,8.481L9.233,8.481L9.236,8.481L9.239,8.481L9.243,8.481L9.246,8.48L9.249,8.48L9.253,8.48L9.256,8.48L9.26,8.48L9.263,8.48L9.266,8.48L9.27,8.48L9.273,8.48ZM8.775,8.891L8.772,8.926L8.772,8.922L8.772,8.919L8.773,8.916L8.773,8.912L8.774,8.909L8.774,8.906L8.775,8.902L8.775,8.899L8.776,8.896L8.776,8.893L8.777,8.889L8.778,8.886L8.778,8.883L8.779,8.879L8.779,8.878L8.775,8.891ZM9.058,8.563L9.049,8.567L9.05,8.567L9.054,8.566L9.057,8.565L9.06,8.563L9.063,8.562L9.066,8.561L9.069,8.56L9.073,8.559L9.074,8.559L9.058,8.563ZM9.145,8.541L9.127,8.545L9.128,8.545L9.131,8.545L9.134,8.544L9.137,8.543L9.141,8.543L9.144,8.542L9.147,8.542L9.151,8.541L9.154,8.541L9.157,8.54L9.161,8.54L9.164,8.54L9.167,8.539L9.171,8.539L9.174,8.538L9.177,8.538L9.181,8.538L9.145,8.541Z" style="fill:rgb(198,0,126);"/>
</svg>
