<?xml version="1.0" encoding="utf-8"?>
<!-- Generator: Adobe Illustrator 22.0.1, SVG Export Plug-In . SVG Version: 6.00 Build 0)  -->
<svg version="1.1" id="Layer_3" xmlns="http://www.w3.org/2000/svg" xmlns:xlink="http://www.w3.org/1999/xlink" x="0px" y="0px"
	 viewBox="0 0 88.3 91.9" style="enable-background:new 0 0 88.3 91.9;" xml:space="preserve">
<style type="text/css">
	.st0{fill:#1111B7;}
	.st1{fill:#0C0C96;}
	.st2{fill:#4141E5;}
	.st3{fill:#8484F4;}
	.st4{fill:#0A0A7A;}
</style>
<path class="st0" d="M60.2,41.1c0,0-29.4-35-31.7-37.6s-8-2.5-8-2.5l16.4,37v2.6L60.2,41.1z"/>
<path class="st0" d="M60.2,51.6c0,0-29.4,35-31.7,37.6c-2.3,2.6-8,2.5-8,2.5l16.4-37v-2.6L60.2,51.6z"/>
<polygon class="st0" points="17.1,42.8 4.7,29.2 0.6,29.2 6.8,44.8 "/>
<polygon class="st0" points="17.1,49.6 4.7,63.1 0.6,63.1 6.8,47.6 "/>
<polygon class="st1" points="5.1,51.9 6.4,48.7 15.9,50.9 14.4,52.6 "/>
<path class="st2" d="M0.2,46.5L0.2,46.5c0-3.5,23.7-6.3,26.3-6.3h46.9c2.6,0,15,2.8,15,6.3v0c0,3.5-12.3,6.3-15,6.3H26.6
	C23.9,52.8,0.2,50,0.2,46.5z"/>
<path class="st3" d="M0.2,46.5L0.2,46.5c0-3.5,23.7-6.3,26.3-6.3h46.9c2.6,0,15,2.8,15,6.3v0C72.9,43,16.2,43.6,0.2,46.5z"/>
<path class="st4" d="M39.4,29.1v-1c0-1.2,1-1.9,2.7-2.3l3.5-0.6h5.3c1.2,0,2.2,1,2.2,2.2v2.3c0,1.2-1,2.2-2.2,2.2h-5.1l-3.5-0.7
	C40.9,30.9,39.4,30.3,39.4,29.1z"/>
<path class="st4" d="M31.2,16.9v-0.8c0-1,0.8-1.6,2.2-1.9l2.8-0.5h4.2c1,0,1.7,0.8,1.7,1.7v1.9c0,1-0.8,1.7-1.7,1.7h-4.1l-2.8-0.6
	C32.5,18.3,31.2,17.9,31.2,16.9z"/>
<path class="st4" d="M39.4,64v1c0,1.2,1,1.9,2.7,2.3l3.5,0.6h5.3c1.2,0,2.2-1,2.2-2.2v-2.3c0-1.2-1-2.2-2.2-2.2h-5.1L42.2,62
	C40.9,62.3,39.4,62.8,39.4,64z"/>
<path class="st4" d="M31.2,76.3v0.8c0,1,0.8,1.6,2.2,1.9l2.8,0.5h4.2c1,0,1.7-0.8,1.7-1.7v-1.9c0-1-0.8-1.7-1.7-1.7h-4.1l-2.8,0.6
	C32.5,74.9,31.2,75.3,31.2,76.3z"/>
<polygon class="st1" points="36.9,54.7 36.9,52.8 59.1,52.8 57.6,54.7 "/>
</svg>
