<?xml version="1.0" encoding="UTF-8" standalone="no"?>
<!DOCTYPE svg PUBLIC "-//W3C//DTD SVG 1.1//EN" "http://www.w3.org/Graphics/SVG/1.1/DTD/svg11.dtd">
<svg width="100%" height="100%" viewBox="0 0 16 19" version="1.1" xmlns="http://www.w3.org/2000/svg" xmlns:xlink="http://www.w3.org/1999/xlink" xml:space="preserve" xmlns:serif="http://www.serif.com/" style="fill-rule:evenodd;clip-rule:evenodd;stroke-linejoin:round;stroke-miterlimit:1.41421;">
    <g transform="matrix(1,0,0,0.979427,-708,-25.0743)">
        <path d="M708,43.383C712.022,45.536 721.115,45.536 724,43.383C724,38.754 720.418,36.016 716,36.016C711.582,36.016 708,38.754 708,43.383ZM711.576,31.918C714.374,32.43 717.24,32.443 720.043,31.957C721.059,29.265 719.593,26.786 717.843,26.863C717.707,26.566 717.547,26.281 717.362,26.011C712.684,25.817 710.91,29.369 711.575,31.918L711.576,31.918ZM715.951,39.31C717.112,39.279 718.045,38.303 718.022,37.141L718.022,35.172C718.046,34.009 717.113,33.03 715.95,33C714.789,33.031 713.857,34.008 713.88,35.169L713.88,37.138C713.855,38.301 714.788,39.279 715.95,39.31L715.951,39.31ZM715.838,37.341L716.095,37.341C717.256,37.31 718.189,36.334 718.166,35.172C718.19,34.009 717.257,33.03 716.094,33L715.837,33C714.676,33.031 713.744,34.008 713.767,35.169C713.742,36.332 714.675,37.31 715.837,37.341L715.838,37.341ZM711.738,33.541L719.903,33.541C720.345,33.532 720.703,33.167 720.703,32.725C720.703,32.719 720.703,32.714 720.703,32.708C720.703,32.702 720.703,32.697 720.703,32.691C720.703,32.249 720.345,31.884 719.903,31.875L711.738,31.875C711.292,31.887 710.934,32.262 710.943,32.708C710.943,32.715 710.943,32.721 710.943,32.728C710.943,33.169 711.3,33.535 711.741,33.545L711.738,33.541ZM720.088,31.566C720.088,34.019 718.188,36.408 715.848,36.408C713.508,36.408 711.609,34.019 711.609,31.566C711.607,31.513 711.606,31.461 711.606,31.408C711.606,29.08 713.522,27.164 715.85,27.164C718.178,27.164 720.094,29.08 720.094,31.408C720.094,31.462 720.093,31.515 720.091,31.569L720.088,31.566ZM711.588,31.856L712,32.46L712,30.814L717.675,28.277L719.783,30.969L719.709,32.325L720.042,31.957C720.042,31.957 721.114,26.921 715.95,26.908C711.187,26.9 711.593,31.86 711.593,31.86L711.588,31.856ZM716.788,32.379C716.8,32.641 717.019,32.851 717.282,32.851C717.553,32.851 717.776,32.628 717.776,32.357C717.776,32.086 717.553,31.863 717.282,31.863C717.281,31.863 717.281,31.863 717.281,31.863C717.008,31.869 716.788,32.095 716.788,32.368C716.788,32.373 716.788,32.378 716.788,32.383L716.788,32.379ZM713.929,32.379C713.941,32.641 714.16,32.851 714.423,32.851C714.694,32.851 714.917,32.628 714.917,32.357C714.917,32.086 714.694,31.863 714.423,31.863C714.422,31.863 714.422,31.863 714.422,31.863C714.149,31.869 713.929,32.095 713.929,32.368C713.929,32.373 713.929,32.378 713.929,32.383L713.929,32.379Z" style="fill:rgb(82,79,214);"/>
    </g>
    <g transform="matrix(1.29966,0,0,1.06549,-3.30729,-0.000221371)">
        <ellipse cx="8.674" cy="5.024" rx="3.459" ry="5.021" style="fill:rgb(82,79,214);"/>
    </g>
    <path d="M7.905,9.406L7.942,9.407L7.978,9.41L8.014,9.414L8.05,9.419L8.086,9.426L8.122,9.434L8.157,9.443L8.192,9.454L8.227,9.465L8.261,9.478L8.294,9.493L8.327,9.508L8.36,9.525L8.392,9.543L8.423,9.561L8.453,9.582L8.479,9.6L8.513,9.598L8.55,9.597L8.587,9.597L8.624,9.598L8.66,9.601L8.697,9.606L8.734,9.611L8.77,9.618L8.806,9.626L8.842,9.636L8.877,9.647L8.912,9.659L8.946,9.673L8.98,9.688L9.014,9.704L9.046,9.721L9.078,9.739L9.11,9.759L9.14,9.78L9.17,9.801L9.199,9.824L9.227,9.848L9.254,9.873L9.28,9.899L9.306,9.926L9.33,9.954L9.353,9.983L9.375,10.013L9.396,10.043L9.416,10.074L9.435,10.106L9.453,10.139L9.469,10.172L9.484,10.205L9.498,10.24L9.51,10.274L9.522,10.31L9.532,10.345L9.54,10.381L9.547,10.417L9.553,10.454L9.558,10.491L9.561,10.527L9.563,10.564L9.564,10.601L9.563,10.744L9.561,10.891L9.558,11.037L9.554,11.182L9.549,11.327L9.543,11.472L9.529,11.757L9.513,12.039L9.497,12.319L9.464,12.875L9.456,12.983L9.446,13.101L9.432,13.218L9.423,13.284L9.413,13.347L9.402,13.411L9.389,13.476L9.375,13.542L9.359,13.609L9.342,13.676L9.322,13.744L9.301,13.812L9.287,13.852L9.273,13.907L9.254,13.971L9.224,14.058L9.18,14.158L9.135,14.24L9.108,14.28L9.09,14.306L9.072,14.332L9.064,14.342L9.05,14.365L9.03,14.395L9.008,14.425L9.004,14.43L8.982,14.459L8.959,14.486L8.935,14.513L8.91,14.539L8.884,14.564L8.857,14.588L8.829,14.611L8.8,14.633L8.771,14.654L8.741,14.673L8.71,14.692L8.704,14.695L8.674,14.713L8.642,14.729L8.611,14.744L8.578,14.758L8.545,14.771L8.512,14.782L8.478,14.793L8.444,14.802L8.41,14.81L8.376,14.817L8.368,14.818L8.332,14.824L8.295,14.828L8.258,14.831L8.222,14.833L8.185,14.834L8.148,14.833L8.112,14.83L8.075,14.827L8.039,14.822L8.002,14.815L7.967,14.808L7.931,14.799L7.896,14.789L7.861,14.777L7.826,14.764L7.792,14.75L7.759,14.735L7.726,14.719L7.694,14.701L7.662,14.682L7.632,14.662L7.602,14.641L7.572,14.619L7.544,14.595L7.516,14.571L7.49,14.546L7.464,14.519L7.439,14.492L7.418,14.467L7.403,14.48L7.399,14.483L7.37,14.506L7.34,14.527L7.309,14.547L7.278,14.566L7.246,14.584L7.213,14.6L7.208,14.602L7.178,14.616L7.147,14.629L7.116,14.641L7.085,14.652L7.053,14.662L7.021,14.671L6.988,14.679L6.955,14.686L6.951,14.686L6.916,14.692L6.88,14.697L6.845,14.7L6.81,14.703L6.774,14.703L6.739,14.703L6.703,14.701L6.668,14.698L6.663,14.698L6.626,14.694L6.59,14.688L6.554,14.681L6.518,14.673L6.482,14.663L6.447,14.652L6.412,14.64L6.407,14.638L6.375,14.625L6.343,14.611L6.312,14.596L6.281,14.581L6.251,14.564L6.221,14.546L6.216,14.542L6.189,14.525L6.164,14.507L6.138,14.488L6.114,14.468L6.09,14.447L6.084,14.442L6.059,14.419L6.034,14.395L6.01,14.37L5.987,14.345L5.965,14.318L5.944,14.291L5.924,14.263L5.905,14.235L5.887,14.206L5.87,14.176L5.868,14.172L5.852,14.141L5.836,14.109L5.822,14.077L5.809,14.044L5.797,14.011L5.786,13.977L5.776,13.943L5.768,13.908L5.761,13.874L5.76,13.868L5.754,13.835L5.749,13.801L5.746,13.768L5.744,13.734L5.742,13.7L5.742,13.693L5.729,13.695L5.692,13.699L5.656,13.702L5.62,13.704L5.583,13.705L5.547,13.704L5.511,13.702L5.475,13.698L5.438,13.693L5.403,13.687L5.367,13.68L5.332,13.671L5.297,13.661L5.262,13.65L5.228,13.637L5.194,13.624L5.161,13.609L5.128,13.592L5.096,13.575L5.065,13.557L5.034,13.537L5.005,13.516L4.975,13.494L4.947,13.472L4.92,13.448L4.893,13.423L4.867,13.397L4.843,13.37L4.819,13.343L4.796,13.314L4.775,13.285L4.754,13.255L4.734,13.225L4.716,13.193L4.699,13.161L4.697,13.158L4.682,13.126L4.667,13.093L4.653,13.06L4.641,13.026L4.63,12.992L4.62,12.957L4.612,12.922L4.605,12.887L4.598,12.852L4.594,12.816L4.59,12.78L4.59,12.776L4.588,12.744L4.587,12.711L4.587,12.678L4.588,12.646L4.59,12.614L4.594,12.581L4.598,12.549L4.603,12.517L4.606,12.504L4.613,12.469L4.621,12.434L4.631,12.4L4.641,12.366L4.658,12.316L4.684,12.253L4.681,12.247L4.666,12.213L4.652,12.179L4.64,12.145L4.628,12.11L4.627,12.106L4.618,12.072L4.609,12.037L4.602,12.002L4.596,11.967L4.591,11.932L4.587,11.897L4.585,11.861L4.584,11.825L4.584,11.817L4.584,11.781L4.586,11.746L4.589,11.71L4.593,11.675L4.598,11.64L4.6,11.629L4.606,11.595L4.614,11.562L4.622,11.529L4.632,11.496L4.643,11.463L4.655,11.431L4.659,11.42L4.673,11.386L4.689,11.352L4.705,11.319L4.721,11.29L4.748,11.23L4.789,11.151L4.84,11.072L4.91,10.979L4.973,10.904L5.016,10.857L5.058,10.815L5.103,10.772L5.153,10.728L5.208,10.684L5.269,10.639L5.338,10.595L5.414,10.552L5.5,10.511L5.596,10.473L5.658,10.455L5.689,10.446L5.72,10.439L5.75,10.432L5.806,10.422L5.936,10.406L6.048,10.396L6.157,10.39L6.193,10.389L6.235,10.381L6.368,10.356L6.41,10.349L6.458,10.329L6.477,10.309L6.52,10.268L6.547,10.244L6.575,10.22L6.603,10.197L6.633,10.176L6.663,10.155L6.667,10.152L6.697,10.134L6.727,10.116L6.758,10.1L6.789,10.085L6.821,10.07L6.854,10.057L6.886,10.045L6.92,10.034L6.953,10.025L6.962,10.023L6.974,9.994L6.989,9.963L7.005,9.933L7.021,9.903L7.023,9.9L7.042,9.869L7.062,9.839L7.084,9.809L7.106,9.78L7.129,9.752L7.154,9.725L7.179,9.699L7.205,9.673L7.233,9.649L7.261,9.626L7.289,9.603L7.319,9.582L7.35,9.562L7.381,9.543L7.413,9.525L7.445,9.509L7.478,9.493L7.512,9.479L7.546,9.466L7.547,9.465L7.582,9.454L7.617,9.443L7.652,9.434L7.688,9.426L7.724,9.419L7.76,9.414L7.796,9.41L7.832,9.407L7.869,9.406L7.905,9.406Z" style="fill:rgb(82,79,214);"/>
    <path d="M8.536,10.155L8.584,10.158L8.683,10.168L8.752,10.177L8.761,10.178L8.83,10.183L8.922,10.192L8.995,10.199L9.02,10.201L9.056,10.203L9.125,10.207L9.208,10.216L9.289,10.227L9.37,10.241L9.449,10.258L9.527,10.278L9.603,10.3L9.678,10.325L9.75,10.351L9.821,10.38L9.89,10.411L9.957,10.443L10.022,10.477L10.084,10.512L10.087,10.513L10.14,10.528L10.201,10.546L10.26,10.565L10.321,10.586L10.383,10.61L10.446,10.636L10.511,10.665L10.577,10.697L10.623,10.721L10.653,10.736L10.696,10.757L10.767,10.792L10.852,10.837L10.91,10.871L10.969,10.907L11.034,10.952L11.105,11.006L11.183,11.074L11.257,11.151L11.309,11.213L11.353,11.273L11.397,11.342L11.42,11.384L11.437,11.417L11.452,11.45L11.467,11.484L11.48,11.519L11.492,11.554L11.503,11.589L11.512,11.625L11.52,11.661L11.527,11.698L11.532,11.734L11.536,11.771L11.538,11.808L11.54,11.845L11.539,11.882L11.538,11.919L11.535,11.955L11.531,11.992L11.525,12.029L11.518,12.065L11.51,12.101L11.501,12.137L11.49,12.172L11.477,12.207L11.464,12.241L11.449,12.275L11.433,12.309L11.43,12.314L11.466,12.352L11.517,12.407L11.566,12.463L11.616,12.521L11.664,12.581L11.713,12.643L11.759,12.705L11.802,12.765L11.843,12.826L11.905,12.921L11.937,12.969L11.967,13.015L12.01,13.086L12.038,13.141L12.053,13.171L12.068,13.202L12.081,13.234L12.085,13.244L12.096,13.275L12.107,13.306L12.116,13.338L12.125,13.369L12.127,13.378L12.135,13.414L12.142,13.45L12.147,13.486L12.151,13.522L12.154,13.559L12.156,13.595L12.156,13.632L12.156,13.639L12.155,13.675L12.152,13.712L12.148,13.748L12.143,13.785L12.137,13.821L12.129,13.857L12.12,13.892L12.109,13.927L12.098,13.962L12.085,13.996L12.084,13.999L12.07,14.032L12.055,14.064L12.039,14.096L12.022,14.127L12.003,14.158L11.984,14.188L11.963,14.217L11.942,14.245L11.919,14.273L11.896,14.3L11.894,14.301L11.871,14.327L11.846,14.351L11.821,14.375L11.794,14.397L11.768,14.419L11.74,14.44L11.711,14.46L11.682,14.478L11.653,14.496L11.622,14.513L11.592,14.529L11.589,14.53L11.558,14.544L11.526,14.558L11.494,14.57L11.461,14.582L11.428,14.592L11.394,14.601L11.361,14.609L11.327,14.615L11.293,14.621L11.289,14.621L11.256,14.625L11.223,14.629L11.189,14.631L11.156,14.631L11.122,14.631L11.089,14.63L11.055,14.627L11.022,14.623L10.989,14.619L10.98,14.617L10.945,14.611L10.91,14.603L10.876,14.595L10.841,14.585L10.788,14.568L10.718,14.543L10.651,14.517L10.587,14.489L10.525,14.46L10.466,14.43L10.409,14.399L10.355,14.368L10.303,14.336L10.249,14.302L10.158,14.241L10.07,14.177L9.988,14.115L9.912,14.054L9.84,13.996L9.714,13.892L9.657,13.845L9.607,13.805L9.564,13.77L9.523,13.74L9.365,13.627L9.202,13.513L9.035,13.401L8.867,13.289L8.697,13.18L8.527,13.073L8.357,12.969L8.187,12.869L8.108,12.823L8.026,12.778L7.849,12.68L7.665,12.578L7.566,12.523L7.449,12.455L7.389,12.415L7.346,12.385L7.34,12.382L7.306,12.367L7.273,12.351L7.24,12.334L7.208,12.315L7.177,12.295L7.146,12.274L7.117,12.252L7.088,12.229L7.06,12.205L7.033,12.18L7.007,12.154L6.982,12.127L6.958,12.099L6.935,12.07L6.913,12.04L6.892,12.009L6.872,11.978L6.854,11.946L6.836,11.914L6.82,11.88L6.805,11.846L6.792,11.812L6.779,11.777L6.768,11.742L6.759,11.706L6.75,11.67L6.743,11.634L6.737,11.598L6.733,11.561L6.73,11.524L6.728,11.487L6.728,11.45L6.729,11.413L6.732,11.376L6.735,11.34L6.741,11.303L6.747,11.267L6.755,11.23L6.764,11.195L6.775,11.159L6.786,11.124L6.799,11.09L6.814,11.056L6.829,11.022L6.846,10.989L6.864,10.957L6.883,10.925L6.904,10.895L6.925,10.864L6.948,10.835L6.972,10.807L6.996,10.779L7.022,10.753L7.049,10.727L7.076,10.703L7.105,10.679L7.134,10.656L7.164,10.635L7.195,10.615L7.227,10.596L7.259,10.578L7.292,10.561L7.325,10.546L7.36,10.531L7.394,10.518L7.429,10.507L7.465,10.496L7.5,10.487L7.537,10.479L7.573,10.473L7.61,10.468L7.646,10.464L7.681,10.462L7.686,10.459L7.716,10.443L7.747,10.427L7.75,10.426L7.781,10.411L7.813,10.398L7.844,10.387L7.864,10.37L7.893,10.348L7.923,10.327L7.954,10.307L7.985,10.288L8.017,10.271L8.05,10.254L8.051,10.254L8.083,10.239L8.115,10.225L8.148,10.213L8.181,10.202L8.215,10.192L8.249,10.183L8.283,10.175L8.318,10.169L8.353,10.163L8.388,10.159L8.392,10.159L8.428,10.156L8.464,10.155L8.5,10.154L8.536,10.155ZM7.561,12.449L7.625,12.456L7.588,12.451L7.552,12.445L7.532,12.441L7.561,12.449Z" style="fill:rgb(82,79,214);"/>
</svg>
