<?xml version="1.0" encoding="UTF-8" standalone="no"?>
<!DOCTYPE svg PUBLIC "-//W3C//DTD SVG 1.1//EN" "http://www.w3.org/Graphics/SVG/1.1/DTD/svg11.dtd">
<svg width="100%" height="100%" viewBox="0 0 13 14" version="1.1" xmlns="http://www.w3.org/2000/svg" xmlns:xlink="http://www.w3.org/1999/xlink" xml:space="preserve" xmlns:serif="http://www.serif.com/" style="fill-rule:evenodd;clip-rule:evenodd;stroke-linejoin:round;stroke-miterlimit:1.41421;">
    <g transform="matrix(0.8125,0,0,0.737061,-1.11022e-15,-0.00249142)">
        <g transform="matrix(1,0,0,0.979427,-708,-25.0743)">
            <path d="M708,43.383C712.022,45.536 721.115,45.536 724,43.383C724,38.754 720.418,36.016 716,36.016C711.582,36.016 708,38.754 708,43.383ZM711.576,31.918C714.374,32.43 717.24,32.443 720.043,31.957C721.059,29.265 719.593,26.786 717.843,26.863C717.707,26.566 717.547,26.281 717.362,26.011C712.684,25.817 710.91,29.369 711.575,31.918L711.576,31.918ZM715.951,39.31C717.112,39.279 718.045,38.303 718.022,37.141L718.022,35.172C718.046,34.009 717.113,33.03 715.95,33C714.789,33.031 713.857,34.008 713.88,35.169L713.88,37.138C713.855,38.301 714.788,39.279 715.95,39.31L715.951,39.31ZM715.838,37.341L716.095,37.341C717.256,37.31 718.189,36.334 718.166,35.172C718.19,34.009 717.257,33.03 716.094,33L715.837,33C714.676,33.031 713.744,34.008 713.767,35.169C713.742,36.332 714.675,37.31 715.837,37.341L715.838,37.341ZM711.738,33.541L719.903,33.541C720.345,33.532 720.703,33.167 720.703,32.725C720.703,32.719 720.703,32.714 720.703,32.708C720.703,32.702 720.703,32.697 720.703,32.691C720.703,32.249 720.345,31.884 719.903,31.875L711.738,31.875C711.292,31.887 710.934,32.262 710.943,32.708C710.943,32.715 710.943,32.721 710.943,32.728C710.943,33.169 711.3,33.535 711.741,33.545L711.738,33.541ZM720.088,31.566C720.088,34.019 718.188,36.408 715.848,36.408C713.508,36.408 711.609,34.019 711.609,31.566C711.607,31.513 711.606,31.461 711.606,31.408C711.606,29.08 713.522,27.164 715.85,27.164C718.178,27.164 720.094,29.08 720.094,31.408C720.094,31.462 720.093,31.515 720.091,31.569L720.088,31.566ZM711.588,31.856L712,32.46L712,30.814L717.675,28.277L719.783,30.969L719.709,32.325L720.042,31.957C720.042,31.957 721.114,26.921 715.95,26.908C711.187,26.9 711.593,31.86 711.593,31.86L711.588,31.856ZM716.788,32.379C716.8,32.641 717.019,32.851 717.282,32.851C717.553,32.851 717.776,32.628 717.776,32.357C717.776,32.086 717.553,31.863 717.282,31.863C717.281,31.863 717.281,31.863 717.281,31.863C717.008,31.869 716.788,32.095 716.788,32.368C716.788,32.373 716.788,32.378 716.788,32.383L716.788,32.379ZM713.929,32.379C713.941,32.641 714.16,32.851 714.423,32.851C714.694,32.851 714.917,32.628 714.917,32.357C714.917,32.086 714.694,31.863 714.423,31.863C714.422,31.863 714.422,31.863 714.422,31.863C714.149,31.869 713.929,32.095 713.929,32.368C713.929,32.373 713.929,32.378 713.929,32.383L713.929,32.379Z" style="fill:rgb(82,79,214);"/>
        </g>
        <g transform="matrix(1.29966,0,0,1.06549,-3.30729,-0.000221371)">
            <ellipse cx="8.674" cy="5.024" rx="3.459" ry="5.021" style="fill:rgb(82,79,214);"/>
        </g>
        <path d="M7.921,9.05L7.959,9.051L7.997,9.055L8.036,9.059L8.074,9.065L8.112,9.072L8.149,9.08L8.187,9.09L8.224,9.101L8.261,9.113L8.297,9.127L8.333,9.142L8.369,9.158L8.404,9.175L8.439,9.193L8.473,9.213L8.506,9.234L8.518,9.241L8.55,9.24L8.589,9.24L8.628,9.242L8.667,9.245L8.706,9.249L8.745,9.255L8.784,9.262L8.822,9.27L8.86,9.28L8.898,9.291L8.935,9.303L8.972,9.317L9.009,9.332L9.045,9.348L9.081,9.365L9.116,9.384L9.15,9.404L9.184,9.425L9.218,9.447L9.251,9.471L9.283,9.495L9.314,9.521L9.345,9.548L9.374,9.576L9.403,9.605L9.431,9.635L9.459,9.665L9.485,9.697L9.51,9.73L9.535,9.763L9.558,9.798L9.581,9.833L9.602,9.869L9.623,9.906L9.642,9.943L9.66,9.981L9.678,10.02L9.694,10.059L9.709,10.099L9.722,10.139L9.735,10.18L9.746,10.221L9.757,10.263L9.766,10.304L9.773,10.347L9.78,10.389L9.785,10.432L9.789,10.475L9.792,10.517L9.794,10.56L9.794,10.604L9.794,10.748L9.792,10.899L9.789,11.049L9.784,11.2L9.773,11.492L9.759,11.782L9.743,12.068L9.727,12.348L9.693,12.906L9.686,13.022L9.674,13.151L9.658,13.287L9.637,13.428L9.612,13.568L9.594,13.65L9.576,13.727L9.555,13.804L9.533,13.883L9.508,13.962L9.498,13.99L9.487,14.035L9.462,14.118L9.423,14.232L9.389,14.308L9.375,14.34L9.359,14.371L9.343,14.402L9.327,14.432L9.309,14.462L9.298,14.482L9.279,14.512L9.259,14.542L9.238,14.572L9.222,14.594L9.204,14.622L9.181,14.656L9.156,14.69L9.153,14.695L9.129,14.726L9.104,14.756L9.078,14.786L9.051,14.814L9.024,14.842L8.996,14.868L8.968,14.894L8.938,14.919L8.908,14.943L8.877,14.965L8.846,14.987L8.814,15.008L8.782,15.028L8.776,15.031L8.744,15.049L8.711,15.066L8.677,15.083L8.643,15.098L8.609,15.112L8.574,15.125L8.539,15.136L8.504,15.147L8.469,15.156L8.433,15.164L8.397,15.171L8.389,15.173L8.35,15.179L8.312,15.184L8.273,15.187L8.234,15.19L8.195,15.19L8.156,15.19L8.117,15.188L8.078,15.185L8.039,15.18L8.001,15.174L7.962,15.166L7.924,15.158L7.886,15.148L7.848,15.136L7.811,15.124L7.774,15.11L7.738,15.095L7.702,15.078L7.666,15.06L7.631,15.041L7.597,15.021L7.563,15L7.53,14.977L7.497,14.954L7.465,14.929L7.434,14.903L7.404,14.876L7.399,14.871L7.372,14.888L7.339,14.907L7.306,14.925L7.272,14.942L7.268,14.944L7.233,14.961L7.197,14.976L7.161,14.99L7.125,15.002L7.089,15.014L7.052,15.024L7.015,15.033L6.977,15.04L6.973,15.041L6.938,15.047L6.903,15.052L6.868,15.056L6.832,15.058L6.797,15.06L6.762,15.06L6.727,15.059L6.691,15.058L6.656,15.055L6.651,15.054L6.615,15.05L6.579,15.045L6.543,15.038L6.508,15.03L6.472,15.021L6.437,15.011L6.402,15L6.367,14.988L6.362,14.986L6.33,14.973L6.298,14.96L6.266,14.945L6.235,14.929L6.204,14.913L6.173,14.895L6.143,14.877L6.138,14.873L6.105,14.852L6.074,14.83L6.043,14.807L6.012,14.782L5.983,14.757L5.977,14.752L5.946,14.724L5.917,14.696L5.889,14.666L5.861,14.636L5.834,14.605L5.809,14.572L5.784,14.539L5.76,14.505L5.737,14.47L5.715,14.435L5.694,14.398L5.692,14.395L5.673,14.358L5.655,14.321L5.637,14.284L5.621,14.245L5.606,14.207L5.592,14.167L5.579,14.127L5.567,14.087L5.56,14.061L5.525,14.06L5.487,14.057L5.448,14.052L5.41,14.047L5.372,14.04L5.334,14.032L5.296,14.022L5.259,14.012L5.222,14L5.185,13.986L5.149,13.972L5.113,13.956L5.078,13.939L5.043,13.921L5.008,13.901L4.975,13.88L4.941,13.859L4.909,13.836L4.877,13.812L4.846,13.786L4.815,13.76L4.786,13.733L4.757,13.705L4.729,13.675L4.702,13.645L4.675,13.614L4.65,13.582L4.625,13.549L4.602,13.515L4.579,13.481L4.558,13.445L4.537,13.409L4.517,13.373L4.516,13.37L4.498,13.333L4.481,13.296L4.465,13.259L4.45,13.221L4.436,13.182L4.423,13.143L4.412,13.104L4.401,13.064L4.392,13.024L4.383,12.983L4.376,12.942L4.37,12.901L4.365,12.86L4.361,12.819L4.361,12.815L4.358,12.776L4.357,12.737L4.356,12.698L4.357,12.66L4.358,12.621L4.361,12.582L4.364,12.543L4.369,12.505L4.374,12.467L4.381,12.428L4.383,12.416L4.391,12.374L4.4,12.333L4.411,12.293L4.421,12.258L4.418,12.25L4.417,12.247L4.405,12.206L4.395,12.165L4.386,12.124L4.377,12.083L4.37,12.041L4.365,11.999L4.36,11.957L4.357,11.915L4.354,11.873L4.353,11.831L4.353,11.822L4.353,11.784L4.354,11.746L4.356,11.708L4.359,11.67L4.363,11.632L4.368,11.595L4.374,11.557L4.376,11.547L4.383,11.51L4.39,11.473L4.399,11.436L4.409,11.4L4.419,11.364L4.43,11.328L4.443,11.293L4.456,11.258L4.46,11.247L4.476,11.208L4.493,11.17L4.511,11.132L4.53,11.095L4.537,11.083L4.562,11.027L4.617,10.922L4.684,10.817L4.768,10.706L4.847,10.612L4.932,10.523L4.992,10.465L5.05,10.415L5.114,10.363L5.184,10.312L5.263,10.261L5.35,10.212L5.447,10.165L5.555,10.123L5.675,10.088L5.787,10.066L5.924,10.05L6.04,10.04L6.152,10.033L6.18,10.033L6.213,10.026L6.347,10.001L6.372,9.997L6.405,9.965L6.433,9.94L6.462,9.915L6.491,9.891L6.521,9.868L6.552,9.846L6.583,9.825L6.587,9.822L6.619,9.802L6.652,9.783L6.685,9.765L6.719,9.748L6.753,9.732L6.788,9.717L6.823,9.704L6.835,9.699L6.85,9.672L6.852,9.669L6.873,9.634L6.895,9.6L6.919,9.567L6.943,9.534L6.967,9.503L6.993,9.472L7.02,9.442L7.047,9.413L7.076,9.385L7.105,9.358L7.134,9.332L7.165,9.307L7.196,9.283L7.228,9.26L7.26,9.238L7.293,9.217L7.327,9.197L7.361,9.179L7.396,9.162L7.431,9.146L7.467,9.131L7.502,9.117L7.504,9.116L7.541,9.104L7.578,9.093L7.615,9.083L7.653,9.074L7.691,9.066L7.729,9.06L7.767,9.056L7.805,9.052L7.844,9.05L7.882,9.049L7.921,9.05Z" style="fill:rgb(82,79,214);"/>
        <path d="M8.541,9.799L8.593,9.801L8.695,9.812L8.775,9.822L8.84,9.827L8.933,9.836L9,9.842L9.068,9.847L9.135,9.851L9.222,9.86L9.308,9.872L9.393,9.887L9.477,9.905L9.559,9.926L9.64,9.949L9.72,9.975L9.797,10.004L9.873,10.034L9.947,10.067L10.019,10.102L10.088,10.138L10.138,10.166L10.18,10.178L10.295,10.213L10.365,10.238L10.431,10.263L10.498,10.29L10.568,10.321L10.639,10.356L10.688,10.381L10.715,10.395L10.756,10.416L10.829,10.452L10.92,10.5L10.984,10.537L11.049,10.577L11.123,10.627L11.205,10.69L11.298,10.771L11.354,10.829L11.377,10.854L11.4,10.88L11.423,10.906L11.444,10.933L11.46,10.953L11.481,10.981L11.502,11.01L11.522,11.039L11.541,11.069L11.56,11.1L11.572,11.121L11.594,11.159L11.614,11.198L11.633,11.237L11.651,11.277L11.668,11.318L11.684,11.36L11.698,11.402L11.711,11.444L11.723,11.487L11.734,11.53L11.743,11.574L11.751,11.618L11.757,11.662L11.763,11.707L11.767,11.751L11.769,11.796L11.77,11.841L11.77,11.886L11.769,11.931L11.766,11.975L11.762,12.02L11.756,12.065L11.75,12.109L11.741,12.153L11.732,12.196L11.728,12.213L11.754,12.243L11.807,12.309L11.86,12.376L11.911,12.445L11.957,12.511L12.002,12.577L12.066,12.674L12.098,12.722L12.132,12.774L12.185,12.862L12.219,12.928L12.235,12.961L12.251,12.993L12.265,13.027L12.279,13.06L12.283,13.071L12.297,13.106L12.309,13.142L12.321,13.178L12.331,13.215L12.341,13.252L12.343,13.261L12.353,13.302L12.361,13.343L12.368,13.385L12.375,13.427L12.379,13.469L12.383,13.511L12.385,13.554L12.387,13.596L12.387,13.639L12.387,13.645L12.385,13.689L12.383,13.733L12.379,13.777L12.374,13.82L12.368,13.863L12.36,13.906L12.351,13.949L12.341,13.992L12.33,14.034L12.317,14.075L12.303,14.116L12.288,14.157L12.272,14.197L12.255,14.236L12.236,14.275L12.217,14.313L12.196,14.351L12.174,14.388L12.172,14.392L12.149,14.428L12.125,14.463L12.099,14.498L12.073,14.531L12.046,14.564L12.018,14.595L11.989,14.626L11.96,14.655L11.929,14.683L11.897,14.711L11.865,14.737L11.832,14.762L11.798,14.785L11.764,14.808L11.729,14.829L11.693,14.849L11.657,14.868L11.62,14.885L11.583,14.901L11.545,14.916L11.507,14.929L11.468,14.941L11.463,14.943L11.426,14.953L11.388,14.962L11.351,14.97L11.313,14.976L11.275,14.981L11.237,14.985L11.199,14.987L11.16,14.988L11.122,14.988L11.084,14.986L11.046,14.983L11.008,14.979L10.97,14.974L10.961,14.972L10.921,14.965L10.882,14.957L10.843,14.947L10.804,14.935L10.748,14.918L10.673,14.891L10.601,14.863L10.532,14.833L10.465,14.801L10.395,14.766L10.283,14.703L10.173,14.635L10.072,14.567L9.979,14.5L9.893,14.434L9.813,14.371L9.739,14.311L9.615,14.208L9.507,14.121L9.469,14.091L9.433,14.063L9.278,13.953L9.117,13.841L8.953,13.729L8.787,13.619L8.619,13.512L8.451,13.406L8.283,13.304L8.115,13.204L8.038,13.16L7.958,13.115L7.782,13.018L7.596,12.915L7.496,12.859L7.373,12.788L7.305,12.743L7.276,12.723L7.259,12.715L7.221,12.697L7.184,12.678L7.148,12.658L7.113,12.636L7.078,12.613L7.044,12.589L7.01,12.563L6.977,12.536L6.946,12.508L6.915,12.479L6.885,12.449L6.855,12.418L6.827,12.385L6.8,12.352L6.774,12.318L6.749,12.283L6.724,12.246L6.701,12.209L6.68,12.172L6.659,12.133L6.639,12.094L6.621,12.054L6.604,12.013L6.588,11.972L6.573,11.93L6.56,11.887L6.547,11.845L6.537,11.801L6.527,11.758L6.519,11.714L6.512,11.67L6.506,11.625L6.502,11.581L6.499,11.536L6.497,11.491L6.497,11.446L6.498,11.401L6.501,11.356L6.505,11.312L6.51,11.267L6.516,11.223L6.524,11.179L6.533,11.135L6.544,11.092L6.555,11.049L6.568,11.006L6.583,10.964L6.598,10.923L6.615,10.882L6.633,10.842L6.652,10.802L6.672,10.763L6.694,10.725L6.716,10.688L6.74,10.652L6.765,10.616L6.791,10.581L6.818,10.548L6.846,10.515L6.875,10.483L6.904,10.453L6.935,10.423L6.967,10.395L6.999,10.368L7.032,10.342L7.066,10.317L7.101,10.294L7.136,10.271L7.172,10.25L7.209,10.231L7.246,10.213L7.284,10.196L7.322,10.18L7.36,10.166L7.399,10.153L7.439,10.142L7.479,10.132L7.519,10.124L7.559,10.117L7.599,10.112L7.64,10.108L7.644,10.107L7.653,10.103L7.689,10.084L7.692,10.083L7.728,10.067L7.764,10.052L7.771,10.049L7.804,10.024L7.838,10L7.873,9.977L7.909,9.955L7.945,9.935L7.982,9.916L8.02,9.898L8.058,9.882L8.097,9.867L8.136,9.854L8.175,9.841L8.215,9.831L8.255,9.822L8.295,9.814L8.335,9.808L8.376,9.803L8.381,9.803L8.421,9.8L8.461,9.798L8.501,9.798L8.541,9.799ZM7.539,12.804L7.613,12.812L7.572,12.807L7.532,12.8L7.504,12.795L7.539,12.804Z" style="fill:rgb(82,79,214);"/>
    </g>
</svg>
